<svg width="31" height="42" viewBox="0 0 31 42" fill="none" xmlns="http://www.w3.org/2000/svg">
<path fill-rule="evenodd" clip-rule="evenodd" d="M9.3634 0.0883789H21.3369C23.3011 0.0883789 25.7052 2.62678 26.0846 4.54737L30.3657 26.1473C30.7484 28.0712 28.2671 30.8413 26.3062 30.8413H7.08018C2.4298 30.8413 -0.212685 29.9079 0.84834 24.2938L4.54178 4.7354C4.90441 2.80138 7.3958 0.0883789 9.3634 0.0883789ZM3.62514 41.3475L6.94252 33.655H11.0355L9.94092 36.1263H20.9138L19.7856 33.5845H23.8081L27.0886 41.2064H23.1366L21.9715 38.6647H8.74223L7.64763 41.3475H3.62514ZM10.1995 23.159C11.6634 23.159 12.8487 24.3442 12.8487 25.8082C12.8487 27.2721 11.6634 28.4574 10.1995 28.4574C8.73551 28.4574 7.55026 27.2721 7.55026 25.8082C7.55026 24.3442 8.73551 23.159 10.1995 23.159ZM13.0132 2.58313H17.7878C17.9087 2.58313 18.0094 2.68386 18.0094 2.80474V5.04766C18.0094 5.16854 17.9087 5.26927 17.7878 5.26927H13.0132C12.8923 5.26927 12.7916 5.16854 12.7916 5.04766V2.80474C12.7916 2.68386 12.8923 2.58313 13.0132 2.58313ZM4.06163 20.6911L6.67726 7.80095H24.2983L26.7427 20.6911H4.06163ZM20.6015 23.159C22.0655 23.159 23.2507 24.3442 23.2507 25.8082C23.2507 27.2721 22.0655 28.4574 20.6015 28.4574C19.1376 28.4574 17.9523 27.2721 17.9523 25.8082C17.9523 24.3442 19.1376 23.159 20.6015 23.159Z" fill="#0C7CE2"/>
</svg>
