<svg width="19" height="16" viewBox="0 0 19 16" fill="none" xmlns="http://www.w3.org/2000/svg">
<path d="M14.5739 15.8125C13.6114 15.8125 12.7979 15.4802 12.1333 14.8156C11.4687 14.151 11.1364 13.3375 11.1364 12.375C11.1364 11.4125 11.4687 10.599 12.1333 9.93438C12.7979 9.26979 13.6114 8.9375 14.5739 8.9375C15.5364 8.9375 16.3499 9.26979 17.0145 9.93438C17.6791 10.599 18.0114 11.4125 18.0114 12.375C18.0114 13.3375 17.6791 14.151 17.0145 14.8156C16.3499 15.4802 15.5364 15.8125 14.5739 15.8125ZM14.5739 13.9792C15.0169 13.9792 15.3951 13.8226 15.7083 13.5094C16.0215 13.1962 16.1781 12.8181 16.1781 12.375C16.1781 11.9319 16.0215 11.5538 15.7083 11.2406C15.3951 10.9274 15.0169 10.7708 14.5739 10.7708C14.1308 10.7708 13.7527 10.9274 13.4395 11.2406C13.1263 11.5538 12.9697 11.9319 12.9697 12.375C12.9697 12.8181 13.1263 13.1962 13.4395 13.5094C13.7527 13.8226 14.1308 13.9792 14.5739 13.9792ZM1.96973 13.2917V11.4583H9.30306V13.2917H1.96973ZM4.03223 7.5625C3.06973 7.5625 2.25618 7.23021 1.5916 6.56563C0.927018 5.90104 0.594727 5.0875 0.594727 4.125C0.594727 3.1625 0.927018 2.34896 1.5916 1.68437C2.25618 1.01979 3.06973 0.6875 4.03223 0.6875C4.99473 0.6875 5.80827 1.01979 6.47285 1.68437C7.13743 2.34896 7.46973 3.1625 7.46973 4.125C7.46973 5.0875 7.13743 5.90104 6.47285 6.56563C5.80827 7.23021 4.99473 7.5625 4.03223 7.5625ZM4.03223 5.72917C4.47528 5.72917 4.85341 5.57257 5.1666 5.25938C5.4798 4.94618 5.63639 4.56806 5.63639 4.125C5.63639 3.68194 5.4798 3.30382 5.1666 2.99063C4.85341 2.67743 4.47528 2.52083 4.03223 2.52083C3.58917 2.52083 3.21105 2.67743 2.89785 2.99063C2.58466 3.30382 2.42806 3.68194 2.42806 4.125C2.42806 4.56806 2.58466 4.94618 2.89785 5.25938C3.21105 5.57257 3.58917 5.72917 4.03223 5.72917ZM9.30306 5.04167V3.20833H16.6364V5.04167H9.30306Z" fill="#0C7CE2"/>
</svg>
