<svg width="287" height="70" viewBox="0 0 287 70" fill="none" xmlns="http://www.w3.org/2000/svg">
<path d="M66.7576 21.085L66.2493 17.5269H77.432L66.7576 21.085Z" fill="#FF7E36"/>
<path d="M69.6379 32.7764L70.6546 29.3877L80.4818 34.1319L69.6379 32.7764Z" fill="#FF7E36"/>
<path d="M62.5218 10.2413L59.6414 7.86921L68.452 0.583496L62.5218 10.2413Z" fill="#FF7E36"/>
<path d="M24.3066 6.01671C23.7181 6.04896 22.6216 6.18601 22.0089 6.29888C19.937 6.70198 18.3246 7.355 16.5268 8.53204C15.6722 9.08832 15.2933 9.40273 14.4871 10.2331C11.9073 12.8694 10.5206 15.9491 9.95629 20.2622C9.85148 21.0765 9.85148 24.6802 9.95629 25.5589C10.1498 27.1552 10.2304 27.6712 10.4561 28.7434C10.5932 29.3642 10.7464 30.1139 10.8028 30.4122C11.1011 31.8795 12.0524 34.6125 13.0601 36.886C14.7693 40.7477 17.2927 44.7867 20.3159 48.4872L21.106 49.4465L19.2195 49.3982C18.1795 49.3659 16.164 49.3175 14.729 49.2853L12.133 49.2369L12.4152 49.8093C12.5684 50.1237 12.6974 50.3978 12.6974 50.414C12.6974 50.4381 12.8908 50.8654 13.1246 51.3653C13.3665 51.8732 13.6164 52.4133 13.689 52.5665C13.826 52.8809 14.3662 54.0338 14.8499 55.0657C15.2691 55.9525 15.7045 56.8716 16.0834 57.6859C16.2527 58.0406 16.5429 58.6533 16.7283 59.0564C17.204 60.0722 17.5104 60.7333 18.1392 62.0796C18.4375 62.7246 18.8003 63.4985 18.9454 63.8129C19.0905 64.1193 19.4372 64.8449 19.7032 65.4173C19.9773 65.9816 20.195 66.4653 20.195 66.4734C20.195 66.4895 20.4127 66.9652 20.6868 67.5376C20.9609 68.1019 21.2672 68.763 21.372 68.9887C21.4849 69.2225 21.6139 69.416 21.6703 69.416C21.7268 69.416 22.1299 69.2951 22.5733 69.1419C23.0167 68.9968 24.4114 68.5373 25.6691 68.1261L27.9587 67.3763L27.9103 66.9652C27.8619 66.5379 27.5878 64.6433 27.4588 63.8129C27.4185 63.5469 27.3379 63.039 27.2895 62.6843C27.2411 62.3295 27.1686 61.8216 27.1202 61.5556C27.0799 61.2896 26.9751 60.5479 26.8784 59.9029C26.7897 59.2579 26.6768 58.5162 26.6365 58.2502C26.5962 57.9841 26.5317 57.5085 26.4914 57.2021C26.4511 56.8877 26.3543 56.2105 26.2737 55.6865C26.2012 55.1705 26.1608 54.7191 26.185 54.6868C26.2173 54.6626 26.4833 54.8561 26.7816 55.1221C30.1596 58.0648 34.4727 61.0074 37.8507 62.6601C39.06 63.2486 39.6324 63.5147 40.7127 63.9742C40.8498 64.0306 41.2609 64.1919 41.6398 64.337C42.0187 64.474 42.4541 64.6433 42.6153 64.6998C43.0104 64.8449 44.268 65.256 44.7034 65.385C44.9049 65.4415 45.1548 65.514 45.2677 65.5463C45.7353 65.6994 47.5734 66.1106 48.4522 66.2638C51.2739 66.7394 53.9263 66.7959 56.5545 66.425C57.5864 66.2799 59.6019 65.7881 60.142 65.5463C60.2307 65.506 60.7386 65.2802 61.2788 65.0384C62.4316 64.5224 63.9312 63.563 64.7777 62.8133C65.1082 62.515 65.5033 62.1683 65.6564 62.0313C66.3981 61.3863 67.5349 59.7981 68.1879 58.4921C69.0425 56.7829 69.4697 55.3318 69.7761 53.0905C69.9132 52.0667 69.8728 49.4223 69.6874 48.1727C69.5987 47.552 69.502 46.8909 69.4778 46.6974C69.3891 46.0444 69.3327 46.3669 69.3166 47.6326C69.2682 50.9944 68.6635 53.8242 67.4704 56.2025C66.4788 58.1938 65.3743 59.5159 63.5523 60.8865C60.6016 63.1116 56.0063 64.0226 51.4351 63.2889C50.8466 63.1922 49.2906 62.8939 48.8795 62.7971C48.7102 62.7568 48.4361 62.6923 48.2748 62.652C47.5009 62.4747 46.0255 61.999 44.7034 61.5153C40.4386 59.9432 35.2064 56.7829 30.8126 53.1067C29.1438 51.7119 27.9425 50.543 25.9432 48.4065C21.7509 43.9241 18.3569 39.0063 16.2688 34.4029C15.9866 33.7741 15.7206 33.1855 15.6803 33.0969C15.64 33.0082 15.5352 32.7421 15.4465 32.5083C15.3497 32.2826 15.2127 31.9198 15.124 31.7021C14.9547 31.2748 14.3742 29.4851 13.9873 28.2194C13.8502 27.7518 13.7132 27.3245 13.697 27.26C13.6084 26.9859 13.2698 25.0833 13.1085 23.9707C13.0601 23.6563 13.0198 22.5196 13.0198 21.4473C13.0198 19.1013 13.1246 18.287 13.7374 16.0055C13.947 15.2477 14.6322 13.7643 15.1885 12.8855C15.9625 11.6681 17.3169 10.217 18.4294 9.42692C21.0173 7.57267 24.6452 6.54074 28.5391 6.53267C30.3128 6.52461 30.1999 6.46012 27.8942 6.13764C27.2653 6.04896 25.1209 5.9764 24.3066 6.01671Z" fill="#0C7CE2"/>
<path d="M10.8938 30.917L3.60814 36.5084C2.6593 43.0147 6.48852 46.7874 8.35231 48.7077L21.06 49.3854C14.9603 42.8791 11.741 34.3622 10.8938 30.917Z" fill="#FF7E36"/>
<path d="M5.3045 35.2173C5.15938 35.3383 4.65954 35.7252 4.17582 36.08C3.70017 36.4347 3.25676 36.7652 3.1842 36.8217C3.1197 36.8781 2.68436 37.2087 2.21676 37.5714C0.402822 38.9581 0.201273 39.1355 0.201273 39.3048C0.201273 39.4015 0.160963 39.5144 0.120653 39.5547C0.0077858 39.6676 -0.040586 41.3122 0.0400337 42.0861C0.104529 42.6424 0.136777 42.8359 0.346388 43.7388C0.51569 44.4725 0.942974 45.4802 1.52344 46.5605C1.74111 46.9475 2.28126 47.6408 2.74079 48.0923L3.23257 48.5921L4.80466 48.6486C5.66729 48.6728 7.22325 48.7211 8.26324 48.7534L10.1578 48.8018L9.57734 48.2052C7.60216 46.1736 6.151 43.0536 5.55442 39.5466C5.38512 38.5631 5.36093 36.3218 5.51411 35.564C5.57054 35.2899 5.60279 35.04 5.58667 35.0319C5.57054 35.0158 5.44155 35.0964 5.3045 35.2173Z" fill="#0C7CE2"/>
<path d="M35.4621 12.1094L13.9438 28.5446C15.0282 34.7798 23.2063 45.2622 27.1598 49.724L48.5086 49.8934C30.3791 42.0994 30.2096 18.7173 35.4621 12.1094Z" fill="#FF7E36"/>
<path d="M42.5669 7.43554C42.0993 7.5081 41.8574 7.56453 41.1399 7.74996C40.761 7.8467 40.7207 7.86282 39.9467 8.20143C38.0522 9.01569 35.9722 10.9102 34.8274 12.8612C34.1663 13.9899 33.473 15.6346 33.1021 16.9567C32.4733 19.206 32.2556 20.8507 32.2556 23.5434C32.2556 26.0345 32.3846 27.3567 32.8603 29.7108C33.7068 33.9191 35.6336 38.458 37.9554 41.7231C39.9548 44.5448 42.4459 46.9472 44.8 48.3258C46.2754 49.1885 48.0571 49.906 49.0164 50.0269C49.2422 50.0592 49.5324 50.1156 49.6775 50.1559C50.0484 50.2768 52.8298 50.2688 53.3457 50.1478C54.1197 49.9785 54.7404 49.8012 54.813 49.7286C54.8614 49.6964 54.942 49.6641 54.9984 49.6641C55.1274 49.6641 56.2883 49.1079 56.8124 48.8015C57.7153 48.2613 58.7634 47.3262 59.497 46.399C59.6744 46.1733 59.8356 45.9798 59.8598 45.9556C59.9485 45.8669 60.3435 45.3187 60.3435 45.2865C60.3435 45.2623 60.4967 44.9962 60.6821 44.698C61.0852 44.0208 61.6254 42.876 62.0365 41.8037C62.0688 41.715 62.1413 41.4812 62.1978 41.2797C62.2542 41.0781 62.3268 40.8282 62.359 40.7153C62.6654 39.7398 62.8588 38.8288 63.1007 37.2487C63.2378 36.3216 63.2378 31.6537 63.1007 30.7185C63.0443 30.3396 62.9556 29.7753 62.9153 29.4689C62.7702 28.4531 62.5767 27.526 62.3509 26.8004C62.3106 26.6633 62.2784 26.4779 62.2784 26.3812C62.2784 26.2925 62.2461 26.1312 62.2058 26.0264C62.1655 25.9216 62.0849 25.6798 62.0285 25.4782C61.7221 24.3899 60.9723 22.2534 60.6096 21.4553C60.3435 20.8507 59.2874 18.7304 59.0858 18.3837C57.5138 15.6668 56.0304 13.7481 54.0471 11.8938C53.4425 11.3214 52.6685 10.6603 52.4105 10.483C52.3057 10.4185 51.9349 10.1605 51.5882 9.91862C50.5724 9.20917 49.3954 8.5884 48.3312 8.19337C48.0006 8.06437 47.654 7.93538 47.5653 7.90313C47.2186 7.77414 46.622 7.62903 45.832 7.49197C45.1709 7.3791 43.1231 7.33879 42.5669 7.43554ZM47.4121 24.1399C48.8471 24.8091 50.0403 27.0342 50.1612 29.2754C50.2338 30.5653 49.9355 31.5166 49.3147 31.9923C48.9197 32.2906 48.1861 32.2906 47.662 31.9842C46.5979 31.3554 45.6949 29.9446 45.2273 28.1387C45.0338 27.4131 45.0338 25.8249 45.2193 25.2847C45.5014 24.4624 46.0819 23.9465 46.7188 23.9465C46.872 23.9465 47.1864 24.0351 47.4121 24.1399Z" fill="#0C7CE2"/>
<path d="M88.5985 50.6722C88.1209 50.6722 87.683 50.6324 87.285 50.5528C86.867 50.4931 86.5486 50.4135 86.3296 50.314L86.4192 48.0152C86.7177 48.0948 87.0461 48.1645 87.4044 48.2242C87.7626 48.2839 88.1408 48.3138 88.5388 48.3138C89.1359 48.3138 89.6832 48.1943 90.1808 47.9555C90.6783 47.7167 91.1062 47.3286 91.4645 46.7912C91.8227 46.2738 92.0914 45.5871 92.2705 44.7313L96.7486 23.6845H99.4055L94.8976 45.0299C94.619 46.3633 94.1812 47.448 93.5841 48.2839C93.0069 49.1198 92.3004 49.7268 91.4645 50.105C90.6286 50.4831 89.6733 50.6722 88.5985 50.6722ZM100.623 45L105.131 23.6845H115.938L115.43 26.0429H107.28L105.877 32.7003H113.49L113.042 35.0289H105.399L103.757 42.6416H111.937L111.43 45H100.623ZM116.206 45L120.714 23.6845H125.401C127.591 23.6845 129.233 24.1422 130.327 25.0578C131.422 25.9733 131.969 27.3167 131.969 29.088C131.969 30.103 131.79 31.0384 131.432 31.8942C131.093 32.75 130.536 33.4964 129.76 34.1333C128.984 34.7502 127.949 35.2379 126.655 35.5961L130.178 45H127.252L124.207 36.1932H120.714L118.863 45H116.206ZM123.521 33.9243C124.516 33.9243 125.372 33.8148 126.088 33.5959C126.805 33.3571 127.392 33.0386 127.849 32.6406C128.327 32.2226 128.675 31.7251 128.894 31.1479C129.113 30.5707 129.223 29.9438 129.223 29.2671C129.223 28.0531 128.884 27.2072 128.208 26.7296C127.531 26.2519 126.516 26.0131 125.163 26.0131H122.894L121.192 33.9243H123.521ZM133.569 45L138.077 23.6845H143.122C145.689 23.6845 147.699 24.3811 149.152 25.7742C150.605 27.1674 151.332 29.3069 151.332 32.1928C151.332 33.6656 151.152 35.0587 150.794 36.3723C150.456 37.666 149.938 38.8402 149.242 39.895C148.565 40.9499 147.719 41.8654 146.704 42.6416C145.689 43.3979 144.525 43.985 143.211 44.4029C141.898 44.801 140.435 45 138.823 45H133.569ZM138.972 42.7013C140.206 42.7013 141.321 42.5321 142.316 42.1938C143.331 41.8355 144.226 41.338 145.003 40.7011C145.779 40.0642 146.426 39.3079 146.943 38.4322C147.461 37.5565 147.849 36.5912 148.107 35.5364C148.386 34.4816 148.525 33.3571 148.525 32.1629C148.525 29.9737 147.998 28.4014 146.943 27.4461C145.908 26.4708 144.525 25.9832 142.793 25.9832H140.256L136.703 42.7013H138.972ZM153.73 45L158.237 23.6845H169.044L168.537 26.0429H160.387L158.984 32.7003H166.596L166.149 35.0289H158.506L156.864 42.6416H165.044L164.537 45H153.73ZM173.612 45.2985C172.577 45.2985 171.662 45.2189 170.866 45.0597C170.09 44.9005 169.353 44.6617 168.657 44.3432V41.7161C169.055 41.9151 169.502 42.1141 170 42.3132C170.498 42.5122 171.045 42.6714 171.642 42.7908C172.259 42.9102 172.926 42.97 173.642 42.97C174.319 42.97 174.956 42.9003 175.553 42.761C176.15 42.6018 176.677 42.3629 177.135 42.0445C177.593 41.7061 177.951 41.2882 178.21 40.7906C178.488 40.2931 178.628 39.706 178.628 39.0293C178.628 38.4919 178.508 38.0142 178.269 37.5963C178.05 37.1783 177.682 36.7703 177.165 36.3723C176.647 35.9543 175.961 35.5065 175.105 35.0289C174.349 34.5711 173.672 34.1034 173.075 33.6258C172.498 33.1282 172.04 32.561 171.702 31.9241C171.383 31.2673 171.224 30.4812 171.224 29.5657C171.224 28.5705 171.403 27.6948 171.761 26.9385C172.139 26.1822 172.647 25.5354 173.284 24.9981C173.941 24.4607 174.687 24.0626 175.523 23.8039C176.379 23.5253 177.284 23.386 178.24 23.386C179.354 23.386 180.329 23.4954 181.165 23.7143C182.021 23.9333 182.827 24.2418 183.583 24.6398L182.568 26.9087C182.051 26.6301 181.404 26.3713 180.628 26.1325C179.852 25.8738 179.056 25.7444 178.24 25.7444C177.623 25.7444 177.055 25.824 176.538 25.9832C176.04 26.1424 175.602 26.3813 175.224 26.6997C174.866 27.0181 174.578 27.4062 174.359 27.864C174.16 28.3019 174.06 28.8094 174.06 29.3865C174.06 29.9836 174.17 30.4911 174.388 30.9091C174.607 31.3071 174.946 31.6753 175.403 32.0137C175.861 32.3321 176.428 32.7003 177.105 33.1182C177.961 33.6357 178.707 34.1432 179.344 34.6408C180.001 35.1383 180.508 35.7155 180.867 36.3723C181.245 37.0291 181.434 37.8451 181.434 38.8203C181.434 39.895 181.245 40.8404 180.867 41.6564C180.508 42.4525 179.981 43.1192 179.284 43.6566C178.608 44.194 177.782 44.602 176.807 44.8806C175.851 45.1592 174.786 45.2985 173.612 45.2985ZM184.665 45L189.172 23.6845H191.829L189.919 32.7003H199.293L201.203 23.6845H203.831L199.323 45H196.696L198.785 35.0587H189.411L187.322 45H184.665ZM205.175 45L209.683 23.6845H212.34L210.13 34.0437L211.981 32.0734L220.161 23.6845H223.385L214.131 33.0585L219.176 45H216.25L212.101 34.6706L209.623 36.4917L207.832 45H205.175ZM230.62 45.2985C228.092 45.2985 226.112 44.592 224.679 43.1789C223.246 41.7659 222.529 39.7955 222.529 37.2679C222.529 35.7155 222.708 34.2427 223.067 32.8496C223.425 31.4564 223.932 30.1826 224.589 29.0283C225.266 27.874 226.072 26.8788 227.007 26.0429C227.963 25.1871 229.027 24.5303 230.202 24.0726C231.376 23.6148 232.65 23.386 234.023 23.386C235.317 23.386 236.451 23.4954 237.426 23.7143C238.402 23.9333 239.327 24.2418 240.203 24.6398L239.188 26.9684C238.451 26.63 237.655 26.3415 236.799 26.1026C235.944 25.8638 235.008 25.7444 233.993 25.7444C232.759 25.7444 231.615 26.023 230.56 26.5803C229.525 27.1376 228.61 27.9237 227.813 28.9387C227.037 29.9538 226.43 31.1579 225.992 32.551C225.574 33.9243 225.365 35.4369 225.365 37.0888C225.365 38.1834 225.555 39.1785 225.933 40.0741C226.331 40.9499 226.938 41.6464 227.754 42.1639C228.57 42.6814 229.615 42.9401 230.888 42.9401C231.645 42.9401 232.331 42.8903 232.948 42.7908C233.585 42.6714 234.123 42.542 234.56 42.4027L235.934 36.1036H231.754L232.262 33.775H239.098L236.829 44.194C235.934 44.5124 234.988 44.7811 233.993 45C232.998 45.199 231.874 45.2985 230.62 45.2985ZM243.011 45.418C242.513 45.418 242.125 45.2786 241.847 45C241.588 44.7413 241.459 44.3631 241.459 43.8656C241.459 43.4277 241.538 43.0197 241.697 42.6416C241.857 42.2634 242.105 41.9649 242.444 41.746C242.802 41.5071 243.24 41.3877 243.757 41.3877C244.195 41.3877 244.543 41.527 244.802 41.8057C245.081 42.0644 245.22 42.4525 245.22 42.97C245.22 43.368 245.141 43.7561 244.981 44.1342C244.822 44.5124 244.573 44.8209 244.235 45.0597C243.917 45.2985 243.509 45.418 243.011 45.418ZM249.973 45L254.481 23.6845H259.168C261.357 23.6845 262.999 24.1422 264.093 25.0578C265.188 25.9733 265.735 27.3167 265.735 29.088C265.735 30.103 265.556 31.0384 265.198 31.8942C264.86 32.75 264.302 33.4964 263.526 34.1333C262.75 34.7502 261.715 35.2379 260.421 35.5961L263.944 45H261.018L257.973 36.1932H254.481L252.63 45H249.973ZM257.287 33.9243C258.282 33.9243 259.138 33.8148 259.854 33.5959C260.571 33.3571 261.158 33.0386 261.616 32.6406C262.093 32.2226 262.441 31.7251 262.66 31.1479C262.879 30.5707 262.989 29.9438 262.989 29.2671C262.989 28.0531 262.65 27.2072 261.974 26.7296C261.297 26.2519 260.282 26.0131 258.929 26.0131H256.66L254.958 33.9243H257.287ZM275.067 45.2985C273.594 45.2985 272.36 45.0697 271.365 44.6119C270.39 44.1541 269.663 43.4874 269.186 42.6117C268.708 41.736 268.469 40.6613 268.469 39.3875C268.469 39.0492 268.499 38.6312 268.559 38.1337C268.618 37.6361 268.708 37.1087 268.827 36.5514L271.574 23.6845H274.231L271.455 36.7007C271.355 37.1584 271.275 37.6361 271.216 38.1337C271.156 38.6312 271.126 39.0392 271.126 39.3577C271.126 40.4722 271.465 41.3479 272.141 41.9848C272.838 42.6217 273.863 42.9401 275.216 42.9401C276.39 42.9401 277.356 42.7411 278.112 42.343C278.888 41.9251 279.505 41.318 279.963 40.522C280.421 39.706 280.779 38.7108 281.038 37.5366L283.993 23.6845H286.65L283.665 37.7456C283.346 39.298 282.839 40.6414 282.142 41.7758C281.465 42.9102 280.55 43.786 279.396 44.4029C278.241 45 276.798 45.2985 275.067 45.2985Z" fill="#0C7CE2"/>
</svg>
