<svg width="141" height="48" viewBox="0 0 141 48" fill="none" xmlns="http://www.w3.org/2000/svg">
<path d="M45.7101 14.8042L45.3621 12.3679H53.0191L45.7101 14.8042Z" fill="#FF7E36"/>
<path d="M47.6824 22.8091L48.3785 20.4888L55.1074 23.7372L47.6824 22.8091Z" fill="#FF7E36"/>
<path d="M42.8097 7.37924L40.8374 5.75503L46.8702 0.766357L42.8097 7.37924Z" fill="#FF7E36"/>
<path d="M16.6429 4.48649C16.24 4.50857 15.4892 4.60241 15.0697 4.6797C13.651 4.9557 12.547 5.40284 11.316 6.20879C10.7308 6.58968 10.4714 6.80497 9.91935 7.37355C8.15289 9.17865 7.20342 11.2874 6.81701 14.2407C6.74524 14.7982 6.74524 17.2657 6.81701 17.8674C6.94949 18.9604 7.00469 19.3137 7.15926 20.0479C7.2531 20.4729 7.35798 20.9863 7.39662 21.1906C7.60087 22.1952 8.25225 24.0666 8.94228 25.6233C10.1126 28.2674 11.8404 31.0331 13.9104 33.5668L14.4514 34.2237L13.1597 34.1906C12.4476 34.1685 11.0675 34.1354 10.085 34.1133L8.30745 34.0802L8.50066 34.4721C8.60554 34.6874 8.69387 34.8751 8.69387 34.8861C8.69387 34.9027 8.82635 35.1953 8.98644 35.5375C9.15204 35.8853 9.32317 36.2551 9.37285 36.36C9.46669 36.5753 9.83655 37.3647 10.1678 38.0713C10.4548 38.6785 10.7529 39.3078 11.0123 39.8653C11.1283 40.1082 11.327 40.5278 11.454 40.8038C11.7797 41.4993 11.9894 41.952 12.42 42.8738C12.6242 43.3155 12.8726 43.8454 12.972 44.0607C13.0714 44.2705 13.3087 44.7673 13.4909 45.1592C13.6786 45.5456 13.8276 45.8768 13.8276 45.8823C13.8276 45.8934 13.9767 46.2191 14.1644 46.611C14.3521 46.9974 14.5618 47.4501 14.6336 47.6046C14.7109 47.7647 14.7992 47.8972 14.8378 47.8972C14.8765 47.8972 15.1525 47.8144 15.4561 47.7095C15.7597 47.6102 16.7147 47.2955 17.5758 47.014L19.1436 46.5006L19.1105 46.2191C19.0773 45.9265 18.8896 44.6293 18.8013 44.0607C18.7737 43.8785 18.7185 43.5308 18.6854 43.2879C18.6523 43.045 18.6026 42.6972 18.5695 42.515C18.5419 42.3329 18.4701 41.825 18.4039 41.3834C18.3431 40.9418 18.2659 40.4339 18.2383 40.2518C18.2107 40.0696 18.1665 39.7439 18.1389 39.5341C18.1113 39.3189 18.0451 38.8552 17.9899 38.4963C17.9402 38.1431 17.9126 37.8339 17.9291 37.8118C17.9512 37.7953 18.1334 37.9278 18.3376 38.1099C20.6506 40.1248 23.6039 42.1397 25.9168 43.2713C26.7449 43.6743 27.1368 43.8564 27.8765 44.1711C27.9703 44.2097 28.2519 44.3201 28.5113 44.4195C28.7708 44.5133 29.0689 44.6293 29.1793 44.6679C29.4498 44.7673 30.3109 45.0488 30.609 45.1371C30.747 45.1758 30.9181 45.2254 30.9954 45.2475C31.3156 45.3524 32.5742 45.6339 33.1759 45.7388C35.1079 46.0645 36.9241 46.1032 38.7237 45.8492C39.4302 45.7499 40.8103 45.4131 41.1801 45.2475C41.2409 45.2199 41.5886 45.0654 41.9585 44.8998C42.7479 44.5465 43.7746 43.8896 44.3543 43.3762C44.5806 43.1719 44.8511 42.9346 44.956 42.8407C45.4638 42.3991 46.2422 41.3116 46.6893 40.4174C47.2744 39.2471 47.567 38.2535 47.7768 36.7188C47.8706 36.0178 47.843 34.2072 47.716 33.3515C47.6553 32.9265 47.5891 32.4738 47.5725 32.3413C47.5118 31.8942 47.4732 32.115 47.4621 32.9817C47.429 35.2836 47.015 37.2212 46.198 38.8496C45.519 40.2131 44.7627 41.1184 43.5152 42.0569C41.4948 43.5804 38.3483 44.2042 35.2183 43.7019C34.8154 43.6356 33.75 43.4314 33.4685 43.3651C33.3525 43.3375 33.1648 43.2934 33.0544 43.2658C32.5245 43.1443 31.5143 42.8186 30.609 42.4874C27.6888 41.411 24.1062 39.2471 21.0977 36.7299C19.955 35.7749 19.1325 34.9745 17.7635 33.5116C14.893 30.4424 12.569 27.0751 11.1393 23.9231C10.9461 23.4925 10.7639 23.0895 10.7363 23.0288C10.7087 22.9681 10.637 22.7859 10.5763 22.6258C10.51 22.4712 10.4162 22.2228 10.3554 22.0738C10.2395 21.7812 9.84207 20.5557 9.5771 19.6891C9.48325 19.3689 9.38941 19.0763 9.37837 19.0322C9.31765 18.8445 9.0858 17.5417 8.9754 16.7799C8.94228 16.5647 8.91468 15.7863 8.91468 15.0521C8.91468 13.4457 8.98644 12.8882 9.40597 11.326C9.5495 10.8071 10.0187 9.79139 10.3996 9.18969C10.9295 8.35614 11.8569 7.36251 12.6187 6.82153C14.3907 5.55188 16.8748 4.8453 19.541 4.83978C20.7555 4.83426 20.6782 4.7901 19.0994 4.56929C18.6688 4.50857 17.2005 4.45889 16.6429 4.48649Z" fill="#0C7CE2"/>
<path d="M7.45911 21.5364L2.47045 25.3649C1.82076 29.8199 4.4427 32.4032 5.71887 33.718L14.42 34.1821C10.2435 29.7271 8.03918 23.8954 7.45911 21.5364Z" fill="#FF7E36"/>
<path d="M3.63209 24.4807C3.53273 24.5635 3.19048 24.8285 2.85927 25.0714C2.53358 25.3143 2.22996 25.5406 2.18028 25.5792C2.13612 25.6179 1.83803 25.8442 1.51786 26.0926C0.27582 27.0421 0.137815 27.1635 0.137815 27.2795C0.137815 27.3457 0.110215 27.423 0.0826137 27.4506C0.00533109 27.5279 -0.02779 28.654 0.0274118 29.1839C0.0715733 29.5648 0.093654 29.6973 0.237179 30.3156C0.353103 30.8179 0.645672 31.5079 1.04313 32.2476C1.19217 32.5126 1.56202 32.9873 1.87667 33.2965L2.2134 33.6387L3.28984 33.6773C3.8805 33.6939 4.94589 33.727 5.658 33.7491L6.95524 33.7822L6.55779 33.3737C5.20534 31.9826 4.21171 29.8463 3.80322 27.4451C3.68729 26.7716 3.67073 25.237 3.77562 24.7181C3.81426 24.5304 3.83634 24.3593 3.8253 24.3538C3.81426 24.3427 3.72593 24.3979 3.63209 24.4807Z" fill="#0C7CE2"/>
<path d="M24.2813 8.65845L9.54736 19.912C10.2899 24.1813 15.8895 31.3588 18.5966 34.4139L33.2145 34.5299C20.8009 29.1932 20.6849 13.1831 24.2813 8.65845Z" fill="#FF7E36"/>
<path d="M29.1463 5.45818C28.8261 5.50786 28.6605 5.5465 28.1692 5.67347C27.9097 5.73971 27.8821 5.75075 27.3522 5.9826C26.0549 6.54014 24.6307 7.83738 23.8469 9.17326C23.3942 9.94609 22.9195 11.0722 22.6656 11.9775C22.235 13.5176 22.0859 14.6438 22.0859 16.4875C22.0859 18.1932 22.1743 19.0986 22.5 20.7104C23.0796 23.592 24.3989 26.6998 25.9887 28.9355C27.3577 30.8676 29.0634 32.5126 30.6753 33.4566C31.6855 34.0472 32.9055 34.5385 33.5624 34.6213C33.717 34.6434 33.9157 34.682 34.0151 34.7096C34.269 34.7924 36.1734 34.7869 36.5267 34.7041C37.0567 34.5882 37.4817 34.4667 37.5314 34.4171C37.5645 34.395 37.6197 34.3729 37.6584 34.3729C37.7467 34.3729 38.5416 33.992 38.9004 33.7822C39.5187 33.4124 40.2363 32.772 40.7386 32.1372C40.8601 31.9827 40.9705 31.8502 40.987 31.8336C41.0478 31.7729 41.3183 31.3975 41.3183 31.3754C41.3183 31.3589 41.4231 31.1767 41.5501 30.9725C41.8261 30.5088 42.196 29.7249 42.4775 28.9907C42.4996 28.93 42.5493 28.7699 42.5879 28.6319C42.6265 28.4939 42.6762 28.3228 42.6983 28.2455C42.9081 27.5776 43.0405 26.9538 43.2062 25.8718C43.3 25.237 43.3 22.0408 43.2062 21.4005C43.1675 21.141 43.1068 20.7546 43.0792 20.5448C42.9798 19.8493 42.8473 19.2145 42.6928 18.7177C42.6652 18.6238 42.6431 18.4969 42.6431 18.4306C42.6431 18.3699 42.621 18.2595 42.5934 18.1877C42.5658 18.116 42.5106 17.9504 42.472 17.8124C42.2622 17.0671 41.7488 15.6043 41.5004 15.0578C41.3183 14.6438 40.5951 13.192 40.4571 12.9546C39.3807 11.0943 38.365 9.78049 37.007 8.51084C36.593 8.11891 36.063 7.66625 35.8864 7.54481C35.8146 7.50065 35.5607 7.324 35.3233 7.1584C34.6278 6.67262 33.8218 6.24757 33.0932 5.97708C32.8669 5.88875 32.6295 5.80043 32.5688 5.77835C32.3314 5.69003 31.9229 5.59066 31.3819 5.49682C30.9293 5.41954 29.5271 5.39194 29.1463 5.45818ZM32.4639 16.896C33.4465 17.3542 34.2635 18.8777 34.3463 20.4124C34.3959 21.2956 34.1917 21.947 33.7666 22.2727C33.4962 22.4769 32.9938 22.4769 32.635 22.2671C31.9063 21.8366 31.2881 20.8705 30.9679 19.634C30.8354 19.1372 30.8354 18.0497 30.9624 17.6799C31.1556 17.1168 31.5531 16.7635 31.9891 16.7635C32.094 16.7635 32.3093 16.8242 32.4639 16.896Z" fill="#0C7CE2"/>
<path d="M60.665 35.2156C60.3379 35.2156 60.0381 35.1884 59.7656 35.1339C59.4794 35.093 59.2613 35.0385 59.1114 34.9704L59.1728 33.3964C59.3772 33.4509 59.602 33.4986 59.8473 33.5395C60.0926 33.5803 60.3515 33.6008 60.6241 33.6008C61.0329 33.6008 61.4077 33.519 61.7484 33.3555C62.0891 33.192 62.3821 32.9262 62.6274 32.5583C62.8727 32.204 63.0566 31.7338 63.1793 31.1478L66.2455 16.7366H68.0648L64.9781 31.3522C64.7873 32.2653 64.4875 33.008 64.0787 33.5803C63.6835 34.1527 63.1997 34.5683 62.6274 34.8273C62.055 35.0862 61.4009 35.2156 60.665 35.2156ZM68.8982 31.3318L71.9848 16.7366H79.3846L79.0371 18.3515H73.4566L72.4959 22.9099H77.7084L77.4018 24.5044H72.1688L71.0445 29.7169H76.6454L76.2979 31.3318H68.8982ZM79.5687 31.3318L82.6553 16.7366H85.8646C87.3636 16.7366 88.4879 17.0501 89.2374 17.677C89.987 18.3038 90.3617 19.2237 90.3617 20.4365C90.3617 21.1315 90.2391 21.772 89.9938 22.358C89.7621 22.944 89.3805 23.455 88.8491 23.8911C88.3176 24.3136 87.6089 24.6475 86.7231 24.8928L89.1352 31.3318H87.132L85.047 25.3016H82.6553L81.388 31.3318H79.5687ZM84.5768 23.748C85.2582 23.748 85.8442 23.6731 86.3348 23.5232C86.8254 23.3597 87.2274 23.1416 87.5408 22.8691C87.8679 22.5829 88.1063 22.2422 88.2563 21.847C88.4062 21.4518 88.4811 21.0225 88.4811 20.5592C88.4811 19.7279 88.2494 19.1487 87.7861 18.8217C87.3228 18.4946 86.6278 18.3311 85.7011 18.3311H84.1475L82.9824 23.748H84.5768ZM91.4569 31.3318L94.5435 16.7366H97.9981C99.7561 16.7366 101.132 17.2136 102.127 18.1675C103.122 19.1215 103.619 20.5864 103.619 22.5624C103.619 23.5709 103.497 24.5248 103.252 25.4242C103.02 26.31 102.666 27.1141 102.189 27.8363C101.725 28.5586 101.146 29.1854 100.451 29.7169C99.7561 30.2348 98.9589 30.6368 98.0594 30.923C97.16 31.1955 96.1584 31.3318 95.0546 31.3318H91.4569ZM95.1568 29.7578C96.0017 29.7578 96.7648 29.642 97.4462 29.4103C98.1412 29.165 98.7544 28.8243 99.2859 28.3882C99.8174 27.9521 100.26 27.4343 100.615 26.8347C100.969 26.2351 101.235 25.5741 101.412 24.8519C101.603 24.1296 101.698 23.3597 101.698 22.542C101.698 21.043 101.337 19.9664 100.615 19.3123C99.906 18.6445 98.9589 18.3106 97.7733 18.3106H96.0357L93.6032 29.7578H95.1568ZM105.261 31.3318L108.348 16.7366H115.748L115.4 18.3515H109.82L108.859 22.9099H114.072L113.765 24.5044H108.532L107.408 29.7169H113.009L112.661 31.3318H105.261ZM118.876 31.5362C118.167 31.5362 117.54 31.4817 116.995 31.3727C116.463 31.2636 115.959 31.1001 115.482 30.8821V29.0832C115.755 29.2195 116.061 29.3558 116.402 29.4921C116.743 29.6283 117.118 29.7374 117.526 29.8191C117.949 29.9009 118.405 29.9418 118.896 29.9418C119.359 29.9418 119.795 29.8941 120.204 29.7987C120.613 29.6897 120.974 29.5261 121.288 29.3081C121.601 29.0764 121.846 28.7902 122.023 28.4496C122.214 28.1089 122.31 27.7069 122.31 27.2435C122.31 26.8756 122.228 26.5485 122.064 26.2623C121.914 25.9761 121.662 25.6968 121.308 25.4242C120.954 25.1381 120.484 24.8314 119.898 24.5044C119.38 24.1909 118.916 23.8707 118.508 23.5436C118.112 23.2029 117.799 22.8145 117.567 22.3785C117.349 21.9288 117.24 21.3905 117.24 20.7636C117.24 20.0822 117.363 19.4826 117.608 18.9648C117.867 18.4469 118.215 18.004 118.651 17.6361C119.1 17.2681 119.611 16.9956 120.184 16.8184C120.77 16.6276 121.39 16.5322 122.044 16.5322C122.807 16.5322 123.475 16.6072 124.047 16.7571C124.633 16.907 125.185 17.1182 125.703 17.3908L125.008 18.9443C124.654 18.7535 124.211 18.5764 123.679 18.4128C123.148 18.2357 122.603 18.1471 122.044 18.1471C121.621 18.1471 121.233 18.2016 120.879 18.3106C120.538 18.4197 120.238 18.5832 119.979 18.8012C119.734 19.0193 119.536 19.285 119.387 19.5984C119.25 19.8982 119.182 20.2458 119.182 20.641C119.182 21.0498 119.257 21.3973 119.407 21.6835C119.557 21.956 119.789 22.2081 120.102 22.4398C120.415 22.6578 120.804 22.9099 121.267 23.1961C121.853 23.5504 122.364 23.8979 122.8 24.2386C123.25 24.5793 123.597 24.9745 123.843 25.4242C124.102 25.8739 124.231 26.4327 124.231 27.1004C124.231 27.8363 124.102 28.4836 123.843 29.0424C123.597 29.5875 123.236 30.044 122.759 30.4119C122.296 30.7799 121.73 31.0592 121.063 31.25C120.409 31.4408 119.68 31.5362 118.876 31.5362ZM126.443 31.3318L129.53 16.7366H131.349L130.041 22.9099H136.459L137.768 16.7366H139.567L136.48 31.3318H134.681L136.112 24.5248H129.693L128.263 31.3318H126.443Z" fill="#0C7CE2"/>
</svg>
