<svg width="19" height="19" viewBox="0 0 19 19" fill="none" xmlns="http://www.w3.org/2000/svg">
<mask id="mask0_130_1641" style="mask-type:alpha" maskUnits="userSpaceOnUse" x="0" y="0" width="19" height="19">
<rect x="0.375" y="0.375" width="18" height="18" fill="#D9D9D9"/>
</mask>
<g mask="url(#mask0_130_1641)">
<path d="M6.8625 15.75L2.25 11.1375C2.125 11.0125 2.03125 10.875 1.96875 10.725C1.90625 10.575 1.875 10.4187 1.875 10.2563C1.875 10.0938 1.90625 9.9375 1.96875 9.7875C2.03125 9.6375 2.125 9.5 2.25 9.375L6.5625 5.08125L4.575 3.09375L5.7375 1.875L13.2375 9.375C13.3625 9.5 13.4531 9.6375 13.5094 9.7875C13.5656 9.9375 13.5938 10.0938 13.5938 10.2563C13.5938 10.4187 13.5656 10.575 13.5094 10.725C13.4531 10.875 13.3625 11.0125 13.2375 11.1375L8.625 15.75C8.5 15.875 8.3625 15.9688 8.2125 16.0312C8.0625 16.0938 7.90625 16.125 7.74375 16.125C7.58125 16.125 7.425 16.0938 7.275 16.0312C7.125 15.9688 6.9875 15.875 6.8625 15.75ZM7.74375 6.2625L3.73125 10.275H11.7563L7.74375 6.2625ZM15.225 16.125C14.775 16.125 14.3937 15.9656 14.0812 15.6469C13.7688 15.3281 13.6125 14.9375 13.6125 14.475C13.6125 14.1375 13.6969 13.8188 13.8656 13.5188C14.0344 13.2188 14.225 12.925 14.4375 12.6375L15.225 11.625L16.05 12.6375C16.25 12.925 16.4375 13.2188 16.6125 13.5188C16.7875 13.8188 16.875 14.1375 16.875 14.475C16.875 14.9375 16.7125 15.3281 16.3875 15.6469C16.0625 15.9656 15.675 16.125 15.225 16.125Z" fill="white"/>
</g>
</svg>
