<svg width="96" height="28" viewBox="0 0 96 28" fill="none" xmlns="http://www.w3.org/2000/svg">
<path d="M85.3797 0.102539H67.0879C68.1534 6.14061 74.0139 11.8235 80.4072 11.8235H94.9696C95.1472 11.2907 95.1472 10.4028 95.1472 9.87001C95.1472 4.5423 90.7074 0.102539 85.3797 0.102539Z" fill="url(#paint0_linear_250_2233)"/>
<path d="M68.6868 12.8892V27.6291H77.5663V19.8152H85.3803C89.6424 19.8152 93.3718 16.7961 94.615 12.8892H68.6868Z" fill="#4FAD50"/>
<path d="M37.4307 0.102783V27.4517H45.2447C45.2447 27.4517 47.1981 27.4517 48.2637 25.4982C53.5914 15.0204 55.1897 11.8238 55.1897 11.8238H56.2553V27.4517H65.1348V0.102783H57.3208C57.3208 0.102783 55.3673 0.280384 54.3018 2.05629C49.862 11.1134 47.3757 15.7307 47.3757 15.7307H46.3102V0.102783H37.4307Z" fill="#4FAD50"/>
<path d="M0.136475 27.6292V0.280273H9.016C9.016 0.280273 11.5023 0.280268 12.923 4.18726C16.4748 14.4875 16.83 15.9082 16.83 15.9082C16.83 15.9082 17.5403 13.422 20.737 4.18726C22.1577 0.280268 24.644 0.280273 24.644 0.280273H33.5235V27.6292H24.644V12.8892H23.5784L18.6059 27.6292H14.6989L9.7264 12.8892H8.66085V27.6292H0.136475Z" fill="#4FAD50"/>
<defs>
<linearGradient id="paint0_linear_250_2233" x1="67.0563" y1="6.04703" x2="95.0843" y2="6.04703" gradientUnits="userSpaceOnUse">
<stop stop-color="#27B1E6"/>
<stop offset="1" stop-color="#148ACA"/>
</linearGradient>
</defs>
</svg>
